<svg version="1.1" id="Layer_1" xmlns="http://www.w3.org/2000/svg" xmlns:xlink="http://www.w3.org/1999/xlink" x="0px" y="0px" viewBox="0 0 131.2 52.3" style="enable-background:new 0 0 131.2 52.3;" xml:space="preserve">
<g>
	<path d="M20.2,50.2c-0.3-0.4-0.5-1-0.8-1.5l-0.1-0.3c-0.4-0.8-1.1-2.9-1.5-4.3c-0.2-0.6-0.3-1-0.4-1.2c-0.7-2.3-1-5-1.3-7.5   L16,34.9c-0.3-2.2,0-5,0.7-6.7c0,0,0-0.1,0.1-0.1c0.2-0.5,0.5-1.3,0-1.6c-0.4-0.2-0.6-0.2-0.8-0.2c-0.6,0.2-0.9,1.1-1.1,1.7   c-0.1,0.2-0.1,0.3-0.1,0.4l-0.9,1.7c-1.3,2.2-3.5,5.1-6.6,6.9C6.2,37.6,5,37.8,4,37.4c-1-0.3-1.7-1.1-2.1-2.2   c-0.3-0.7-0.4-1.5-0.4-2.4c0-2.4,1.2-6.4,1.9-7.9c3.1-6,6.9-10.4,12-14c1.4-1,7-4.1,8.8-2.9c0.2,0.1,0.3,0.3,0.4,0.6   c0.2,0.9-0.3,2.5-0.6,3c-1.1,1.7-2.9,2.7-4.6,3.8c-0.8,0.5-1.6,0.9-2.4,1.5c0,0-1.5,1.2-1.5,1.9c0,0.1,0.1,0.3,0.4,0.5   c0.4,0.2,1.1-0.4,2-1.1c0.2-0.2,0.4-0.4,0.6-0.5c0.5-0.3,0.9-0.6,1.4-0.8c2.4-1.4,4.8-2.8,5.9-5.4c0.6-1.5,0.6-2.9,0-3.8   c-0.6-0.8-1.6-1.2-2.9-1.2l-1.1-0.2c-1.5,0.4-3,0.9-4.4,1.5c-1.2,0.5-2.3,1.3-3.3,2.1c-0.2,0.1-0.3,0.2-0.5,0.3   c-5.1,3.6-9.5,9-11.9,14.5c-0.8,1.6-1.6,4.6-1.7,7.6c0,2.3,0.5,5.2,2.9,6.3c0.7,0.3,1.7,0.7,2.7,0.5c2.8-0.4,6.4-4.1,7.9-6l0.9-1.3   c0,5.8,1,11,3.2,16.5c0.1,0.3,0.6,1.4,1.2,2.4c0.3,0.6,0.9,1.1,1.3,1.4c0.2,0.1,0.4,0.2,0.6,0.2s0.3,0,0.4-0.1l0,0   c0.1-0.1,0.1-0.2,0.2-0.3c0-0.3-0.4-0.7-0.8-1.1C20.5,50.5,20.3,50.3,20.2,50.2z"/>
	<path d="M56.9,32.8L56.9,32.8c-0.3,0.1-0.6,0.3-1,0.5s-0.8,0.5-1.3,0.8c-1.4,0.6-2.9,0.9-4.3,0.7c-1.3-0.1-2.4-0.6-3.4-1.3   l-0.1-0.1c0-0.1-0.1-0.1-0.1-0.2c0.3-0.5,0.5-1,0.6-1.3c0.1-0.1,0.1-0.3,0.2-0.4c0.2-0.4,0.3-0.8,0.5-1.3c0.1-0.6,0.3-1.6,0.3-2.5   c0-1.2,0-2.6-0.7-3.3C47.3,24.1,47,24,46.5,24l0,0l0,0c-1.8,0.7-2.7,2.6-2.8,5.9c0,0.9,0.3,1.9,0.6,2.6c0,0.1,0.1,0.2,0.2,0.3   c0.1,0.1,0.1,0.2,0.1,0.2l-0.1,0.1c-0.1,0.1-0.3,0.2-0.4,0.2c-2.3,1-4.6-0.5-5.7-1.8c0-0.1-0.1-0.1-0.2-0.2   c-0.5-0.6-1.4-1.8-2.2-1.6c-0.9,0.2-0.7,1.5-0.6,2.7c0.1,0.8,0.2,1.6-0.1,1.9c-0.1,0.1-0.2,0.1-0.3,0.1c-0.8-0.1-1.6-1.2-2.4-2.2   c-0.3-0.4-0.6-0.8-0.9-1.1l0,0c-0.5-0.5-0.8-0.9-1.4-0.8c-0.8,0.3-0.6,1.3-0.4,2.1c0,0.1,0,0.2,0.1,0.3c0.3,1.7,0.3,3.9-0.7,5   c-0.4,0.4-0.8,0.6-1.4,0.5c0.4-3.5-0.2-6.8-1.5-8.7c-0.3-0.5-1.4-2-2.8-1.2c-0.6,0.3-1,0.9-1.2,1.8c-0.6,2.2,0.3,5.6,1.2,7   c0.3,0.5,1,1.2,1.9,2c0,0.1-0.1,0.3-0.2,0.4c-0.2,0.4-0.5,0.9,0.1,1.3c0.1,0.1,0.3,0.2,0.4,0.2s0.1,0,0.2,0c0.5-0.1,1-0.8,1.1-1.1   c3.5,0.3,4.3-1.9,4.6-4.2c0.1-0.5,0.1-1.3,0.1-1.9l0,0c0.1,0.1,0.2,0.2,0.4,0.4c0.9,1,2.6,2.7,4.3,1.8c0.7-0.4,0.7-1.3,0.7-2.2   c0-0.3,0-0.7,0-1c0.2,0.1,0.5,0.4,0.7,0.6c0.3,0.2,0.5,0.4,0.6,0.5c0.5,0.4,1.2,0.9,2.1,1.2c0.9,0.3,2.3,0.5,3.5,0.1   c0.4-0.1,1.1-0.5,1.5-0.8c0,0,0,0,0.1,0l0,0c0.3,0.3,0.7,0.5,1.1,0.7c0.7,0.4,1.4,0.7,2.1,0.8c3,0.9,7.6-0.4,8.8-2.4   c0.1-0.2,0.1-0.5,0-0.7C57.5,32.8,57.2,32.7,56.9,32.8z M46.4,26.2L46.4,26.2L46.4,26.2L46.4,26.2L46.4,26.2   c0.8,1.3-0.3,4.4-0.8,5.6v0.1c-0.3-0.5-0.4-1.4-0.2-2.5C45.5,28,46,26.5,46.4,26.2L46.4,26.2z M26.2,37.8c-1.7-0.9-2.1-3-2.4-5.2   c-0.2-1.5,0-2.4,0.5-2.8c0.3,0,0.6,0.2,0.9,0.6C26.3,31.9,26.6,36,26.2,37.8z"/>
	<path d="M46.4,26.2L46.4,26.2L46.4,26.2z"/>
	<path d="M130,35.2c-0.1-0.1-0.2-0.2-0.2-0.2c-2.1-2.5-3.7-4.6-5.1-6.5l-1.7-2.6c0.2-0.2,0.4-0.5,0.7-0.7c0.5-0.5,1-1,1.3-1.4   c0.7-0.8,1.3-1.6,2-2.3c0.7-0.7,1.3-1.5,2-2.3c0,0,0.1-0.1,0.2-0.2c1-1.1,1.7-1.9,1.6-2.3c0-0.1-0.1-0.1-0.2-0.2   c-0.6-0.1-1.6,0.9-2.3,1.6l-0.4,0.5c-1.2,1.3-2.3,2.5-3.5,3.8l-2.2,2.3c-0.9-1.6-1.6-3.6-2.3-6.2c0-0.1,0-0.2-0.1-0.3   c-0.1-0.6-0.3-1.3-0.8-1.6c-0.2-0.1-0.4-0.1-0.6-0.1c-0.3,0.1-0.6,0.7-0.9,1.5c-0.2,0.5-0.4,1-0.6,1.4c-1,1.8-1.4,1.8-1.5,1.8   c-0.8-0.4-0.9-2.4-1-4.2v-0.2c0-0.8-0.1-1.8-0.2-2.3c-0.1-0.6-0.3-0.7-0.7-0.8c-0.4-0.1-0.7,0.2-0.8,0.7c-0.1,0.4-0.2,0.9-0.3,1.3   c-0.1,0.2-0.1,0.5-0.2,0.6c-1.1,4.6-2.3,5.7-3.1,5.9c-0.7,0.1-1.5-0.3-2.3-1.4c-0.1-0.1-0.2-0.3-0.3-0.6c0.5-0.7,1.1-2.3,1.3-2.9   c1.2-4,1.7-7,2.4-11.6V5.4c0.2-1.6,0.6-4.2-0.3-5.1c-0.3-0.3-0.7-0.3-1.2-0.2c-4.3,1.6-6.7,9.8-5.8,15.6c0.2,1,0.4,2,0.8,3   c0.2,0.4,0.6,1.2,0.9,1.7c-0.1,0.2-1,1.3-1.5,1.7c-1,1-3.4,2.5-5.8,1.6c-1.1-0.4-2-1.3-2.6-2.1c0.8-0.7,2-2.2,2.4-2.9   c0.6-1,1-2,1.4-3.1c0.3-1,0.5-2.3,0.6-3.5c0.5-3.8-0.5-7.9-3.8-8.4c-1-0.2-2.1,0.2-3.3,1.1c-4.5,3.3-2.8,9.6-1.5,13.1   c0.4,1,1,1.9,1.3,2.6c0.2,0.3,0.4,0.6,0.6,0.9c-2.1,1.5-4.4,3-7.1,4.2l-0.2,0.1c-0.6,0.3-2.2,1-2.8,0.8l0,0c0-0.2,0.2-0.6,0.4-1   c0.3-0.5,0.6-1.1,0.5-1.6c-0.1-0.3-0.3-0.5-0.7-0.6c-0.5-0.2-1.6-0.2-2.6-0.3c-1.7,0-3.5-0.1-3.7-0.8c0-0.1,0-0.3,0.2-0.4   c0.6-0.7,2.7-1.1,3.7-0.9c0.1,0,0.2,0,0.3,0.1c0.4,0.1,0.9,0.1,1.2,0c0.2-0.1,0.4-0.2,0.6-0.5c0.1-0.2,0.1-0.4,0-0.6   c-0.3-0.7-1.4-0.7-2.4-0.7c-0.2,0-0.3,0-0.4,0c-1.8,0-4.1,0.5-4.7,2.1c-0.2,0.6-0.2,1.1,0,1.6c0.5,1.1,2,1.5,2.5,1.6   s0.9,0.1,1.3,0.1c0.2,0,0.4,0,0.7,0.1c0.2,0,0.4,0,0.6,0s0.4,0,0.6,0c0.1,0,0.2,0,0.3,0c0.2,0,0.4,0,0.5,0.1c0,0.3-0.4,0.8-0.6,1.2   v0.1c-0.3,0.4-0.2,1.2,0.1,1.7c0.9,1.1,3,0.2,3.8-0.2c2.5-1,4.5-2,6.3-3.1l2.6-1.8c0.2,0.2,0.4,0.4,0.7,0.6c0.8,0.8,1.6,1.6,2.8,2   c3.4,1.3,7.4-1.2,8.7-3.5c0.6,0.9,1.8,1.9,3,2.2c0.8,0.1,1.6-0.1,2.3-0.7c1-0.9,1.6-2.6,2-3.8c0-0.1,0-0.1,0.1-0.2   c0,0.8,0.2,1.7,0.6,2.5c0.4,0.9,1.2,1.8,2,1.5c0.5-0.1,1.3-0.9,1.6-1.3c0.5-0.6,1-1.3,1.4-2.2c0.1,0.2,0.1,0.5,0.2,0.7   c0.1,0.3,0.2,0.5,0.2,0.8c0.2,0.4,0.3,0.8,0.5,1.3c0.4,1.2,0.9,2.4,1.5,3.4c-0.3,0.5-2.5,2.5-3.2,3.1l-0.8,0.6   c-2.5,2.1-5.1,4.3-7.4,6.7c-0.3,0.3-1.2,1.4-1.9,2.5c-0.5,0.9-0.7,1.7-0.4,2.2c0.1,0.2,0.6,0.5,1,0.6c0.1,0,0.1,0,0.2,0   c0.2,0,0.3,0,0.4-0.1s0.1-0.4,0-0.6c0-0.2-0.1-0.4-0.1-0.5c0-0.3,0.1-0.5,0.2-0.7c0.4-0.8,1.2-1.8,1.7-2.3c2.4-2.3,5-4.7,7.7-7   c1.3-1.1,2.2-2,3.3-3.1c0.9,1.4,1.7,2.5,2.8,3.9c0.8,1,1.6,2,2.4,2.9c0.4,0.5,0.8,0.9,1.1,1.3c0.1,0.1,0.2,0.2,0.3,0.4   c0.7,0.8,1.8,2.3,2.6,2.3l0,0l0,0c0.1-0.1,0.2-0.2,0.2-0.4C131.6,36.9,130.6,35.7,130,35.2z M106.5,4.7c0.6-1.1,1.4-2.3,2.4-2.8   c0,0,0,0,0.1,0c0.1,0.1,0.4,0.8-0.2,4.3v0.1c-0.5,3-1.2,6.9-2.3,10.3c-0.1,0.4-0.3,0.8-0.5,1.2c-0.1,0.3-0.3,0.6-0.4,1   C103.6,14.5,104.5,8.2,106.5,4.7z M93.8,20.2c-0.6-0.9-1.3-1.9-1.7-3c-1.4-3.3-2.2-8.9,0.4-11.1c0.7-0.6,1.7-1,2.5-1.1l0,0   c0.7,0,1.3,0.3,1.8,0.8c0.9,1,1.3,2.9,1,5c-0.5,4.2-1,5.8-3.2,8.4l0,0C94.4,19.6,94.1,19.9,93.8,20.2z"/>
	<path d="M75.1,31l-1.4-1.8c-0.8-1-1.5-2.1-2.2-3.1c-1.1-1.5-2.1-3-3.3-4.5l-0.1-0.1c-1.5-2-1.7-2.5-1.7-2.6c0.1-0.2,1-0.6,1.5-0.7   c0.3-0.1,0.5-0.2,0.6-0.2c0.3-0.2,0.6-0.3,0.9-0.5c1.8-0.9,3.6-1.8,5-3.2l0.1-0.1c0.5-0.4,1.4-1.4,0.9-2.3   c-0.1-0.4-0.4-0.6-0.7-0.6c-0.2,0-0.4,0.1-0.5,0.2S74,11.8,74,12c-0.1,0.3-0.2,0.7-0.6,1.1c-1.6,1.7-4.6,2.9-7.1,4l-0.2,0.1   c0-2.4,0.1-5.5,0.5-8.4c0.1-0.8,0.2-2.1-0.2-2.4c-0.1-0.1-0.2-0.1-0.5,0c-1,0.5-1.1,3.1-1.2,4.6c0,0.2,0,0.3,0,0.4   c-0.1,1.1-0.1,2.2-0.1,3.3c0,0.7,0,1.4,0,2.1c0,0.1,0,0.2,0,0.3c0,0.2,0,0.5,0,0.6s-0.1,0.2-0.1,0.3c-0.1,0.1-0.1,0.2-0.1,0.4   c0,0.3,0.1,0.5,0.1,0.7c0.1,0.2,0.1,0.3,0.1,0.5v0.1c0.2,3.3,0.4,7.4,0.8,10.9c0,0.4,0.1,1,0.1,1.7c0.2,3,0.4,5.5,1.1,5.8   c0.1,0.1,0.2,0.1,0.3,0.1c0.1,0,0.2,0,0.3-0.1c0.4-0.3,0.2-1.4,0.1-2c0-0.1,0-0.2,0-0.3c0-0.2-0.1-1-0.2-1.7s-0.2-1.5-0.2-1.7   c-0.3-2.6-0.5-6.9-0.5-7.5c-0.1-1-0.2-2.2-0.2-3.4c0.5,0.5,0.8,1.1,1.2,1.7c0.2,0.3,0.4,0.7,0.7,1c1.5,2,3,4.1,4.6,6.2   c0,0.1,0.1,0.2,0.2,0.3c0.5,0.7,1.4,2,2.2,2.1c0.2,0,0.4,0,0.6-0.1s0.4-0.5,0.3-0.9L75.1,31z"/>
</g>
</svg>
